<svg width="28" height="28" viewBox="0 0 28 28" fill="none" xmlns="http://www.w3.org/2000/svg">
<path d="M6.52722 11.8788C6.52582 10.8781 6.7225 9.88702 7.10591 8.96271C7.48932 8.03839 8.05188 7.19911 8.76117 6.49322C9.47046 5.78734 10.3124 5.22882 11.2386 4.84987C12.1647 4.47091 13.1567 4.27901 14.1574 4.28522C18.3329 4.31626 21.6727 7.78692 21.6727 11.9741V12.7225C21.6727 16.4999 22.463 18.6919 23.1591 19.89C23.2341 20.018 23.274 20.1635 23.2748 20.3119C23.2756 20.4602 23.2372 20.6062 23.1636 20.735C23.09 20.8638 22.9837 20.9709 22.8555 21.0455C22.7273 21.1201 22.5817 21.1596 22.4333 21.16H5.7658C5.61743 21.1596 5.47178 21.1201 5.34355 21.0455C5.21532 20.9708 5.10904 20.8637 5.03544 20.7349C4.96183 20.606 4.92351 20.4601 4.92433 20.3117C4.92515 20.1633 4.96508 20.0178 5.0401 19.8898C5.73654 18.6917 6.52721 16.4997 6.52721 12.7225L6.52722 11.8788Z" stroke="#fff" stroke-width="2.3" stroke-linecap="round" stroke-linejoin="round"/>
<path d="M10.7246 21.16V22.0038C10.7246 22.8989 11.0802 23.7573 11.7131 24.3902C12.3461 25.0232 13.2045 25.3788 14.0996 25.3788C14.9947 25.3788 15.8532 25.0232 16.4861 24.3902C17.119 23.7573 17.4746 22.8989 17.4746 22.0038V21.16" stroke="#fff" stroke-width="2.3" stroke-linecap="round" stroke-linejoin="round"/>
</svg>
