<svg width="78" height="22" viewBox="0 0 78 22" fill="none" xmlns="http://www.w3.org/2000/svg">
<path d="M28.8935 16.21C31.4275 16.21 32.9395 14.6 33.3875 12.92L31.8475 12.416C31.5115 13.536 30.5595 14.6 28.8935 14.6C27.1995 14.6 25.6035 13.368 25.6035 11.044C25.6035 8.636 27.2415 7.446 28.8795 7.446C30.5455 7.446 31.4695 8.412 31.7635 9.616L33.3455 9.084C32.8975 7.348 31.3995 5.864 28.8795 5.864C26.3035 5.864 23.8815 7.81 23.8815 11.044C23.8815 14.278 26.2195 16.21 28.8935 16.21ZM36.4401 11.996C36.4681 11.128 36.9581 10.456 37.8541 10.456C38.8761 10.456 39.2541 11.128 39.2541 11.968V16H40.8781V11.688C40.8781 10.19 40.0661 8.986 38.3861 8.986C37.6721 8.986 36.9021 9.238 36.4401 9.84V5.864H34.8161V16H36.4401V11.996ZM42.4352 14.152C42.4352 15.23 43.3172 16.21 44.7452 16.21C45.8512 16.21 46.5232 15.65 46.8452 15.132C46.8452 15.678 46.9012 15.958 46.9152 16H48.4272C48.4132 15.93 48.3432 15.524 48.3432 14.908V11.52C48.3432 10.162 47.5452 8.972 45.4452 8.972C43.7652 8.972 42.7012 10.022 42.5752 11.198L44.0592 11.534C44.1292 10.848 44.6052 10.302 45.4592 10.302C46.3552 10.302 46.7472 10.764 46.7472 11.338C46.7472 11.576 46.6352 11.772 46.2432 11.828L44.4932 12.094C43.3312 12.262 42.4352 12.934 42.4352 14.152ZM45.0532 14.936C44.4092 14.936 44.0592 14.516 44.0592 14.054C44.0592 13.494 44.4652 13.214 44.9692 13.13L46.7472 12.864V13.172C46.7472 14.502 45.9632 14.936 45.0532 14.936ZM52.337 7.096H50.867V8.118C50.867 8.72 50.545 9.182 49.817 9.182H49.467V10.624H50.727V14.054C50.727 15.328 51.511 16.084 52.771 16.084C53.359 16.084 53.667 15.972 53.765 15.93V14.586C53.695 14.6 53.429 14.642 53.205 14.642C52.603 14.642 52.337 14.39 52.337 13.788V10.624H53.751V9.182H52.337V7.096ZM56.8102 16V15.09C57.2022 15.748 57.9442 16.168 58.9102 16.168C60.8982 16.168 62.1162 14.614 62.1162 12.556C62.1162 10.554 61.0102 9 58.9662 9C57.9162 9 57.1322 9.49 56.8242 10.022V5.864H55.2282V16H56.8102ZM60.4782 12.57C60.4782 13.914 59.7082 14.726 58.6442 14.726C57.6082 14.726 56.8102 13.914 56.8102 12.57C56.8102 11.212 57.6082 10.442 58.6442 10.442C59.7222 10.442 60.4782 11.212 60.4782 12.57ZM66.6734 14.754C65.6794 14.754 64.7694 13.998 64.7694 12.584C64.7694 11.17 65.6794 10.442 66.6734 10.442C67.6814 10.442 68.5774 11.17 68.5774 12.584C68.5774 14.012 67.6814 14.754 66.6734 14.754ZM66.6734 8.972C64.6434 8.972 63.1454 10.498 63.1454 12.584C63.1454 14.684 64.6434 16.21 66.6734 16.21C68.7174 16.21 70.2154 14.684 70.2154 12.584C70.2154 10.498 68.7174 8.972 66.6734 8.972ZM70.6838 16H72.5458C72.6718 15.79 73.9458 13.928 74.0858 13.718L75.6678 16H77.5718L75.0938 12.528L77.4878 9.182H75.6398L74.1558 11.366C74.0298 11.17 72.7838 9.392 72.6578 9.182H70.7258L73.1618 12.556L70.6838 16Z" fill="white"/>
<path d="M33.3875 12.92L34.3537 13.1777L34.5974 12.2638L33.6985 11.9696L33.3875 12.92ZM31.8475 12.416L32.1585 11.4656L31.1842 11.1467L30.8896 12.1287L31.8475 12.416ZM31.7635 9.616L30.792 9.85322L31.0503 10.9109L32.0822 10.5638L31.7635 9.616ZM33.3455 9.084L33.6642 10.0318L34.5463 9.73521L34.3137 8.83412L33.3455 9.084ZM28.8935 17.21C31.9287 17.21 33.8019 15.247 34.3537 13.1777L32.4212 12.6623C32.0771 13.953 30.9262 15.21 28.8935 15.21V17.21ZM33.6985 11.9696L32.1585 11.4656L31.5364 13.3664L33.0764 13.8704L33.6985 11.9696ZM30.8896 12.1287C30.6538 12.9147 30.0314 13.6 28.8935 13.6V15.6C31.0875 15.6 32.3691 14.1573 32.8053 12.7033L30.8896 12.1287ZM28.8935 13.6C28.2869 13.6 27.7223 13.3802 27.3131 12.9793C26.9134 12.5875 26.6035 11.9652 26.6035 11.044H24.6035C24.6035 12.4468 25.0916 13.6025 25.9133 14.4077C26.7257 15.2038 27.8061 15.6 28.8935 15.6V13.6ZM26.6035 11.044C26.6035 10.0794 26.9247 9.44835 27.3251 9.05823C27.7369 8.65701 28.2983 8.446 28.8795 8.446V6.446C27.8226 6.446 26.7461 6.82999 25.9293 7.62577C25.1012 8.43264 24.6035 9.60058 24.6035 11.044H26.6035ZM28.8795 8.446C29.5101 8.446 29.9249 8.62463 30.2003 8.85143C30.4827 9.08403 30.6873 9.42456 30.792 9.85322L32.7349 9.37878C32.5456 8.60344 32.1412 7.85897 31.4717 7.30757C30.7951 6.75037 29.9148 6.446 28.8795 6.446V8.446ZM32.0822 10.5638L33.6642 10.0318L33.0267 8.13616L31.4447 8.66816L32.0822 10.5638ZM34.3137 8.83412C33.7555 6.67085 31.8701 4.864 28.8795 4.864V6.864C30.9288 6.864 32.0394 8.02515 32.3772 9.33388L34.3137 8.83412ZM28.8795 4.864C25.7897 4.864 22.8815 7.22 22.8815 11.044H24.8815C24.8815 8.4 26.8173 6.864 28.8795 6.864V4.864ZM22.8815 11.044C22.8815 14.8629 25.7003 17.21 28.8935 17.21V15.21C26.7386 15.21 24.8815 13.6931 24.8815 11.044H22.8815ZM36.4401 11.996L35.4406 11.9638L35.4401 11.9799V11.996H36.4401ZM39.2541 16H38.2541V17H39.2541V16ZM40.8781 16V17H41.8781V16H40.8781ZM36.4401 9.84H35.4401V12.7856L37.2334 10.4488L36.4401 9.84ZM36.4401 5.864H37.4401V4.864H36.4401V5.864ZM34.8161 5.864V4.864H33.8161V5.864H34.8161ZM34.8161 16H33.8161V17H34.8161V16ZM36.4401 16V17H37.4401V16H36.4401ZM37.4396 12.0282C37.4481 11.7641 37.5246 11.6167 37.5795 11.5529C37.6162 11.5103 37.6794 11.456 37.8541 11.456V9.456C37.1328 9.456 36.5031 9.7377 36.0637 10.2481C35.6427 10.7373 35.4601 11.3599 35.4406 11.9638L37.4396 12.0282ZM37.8541 11.456C38.0006 11.456 38.0789 11.48 38.113 11.4945C38.1427 11.5071 38.1537 11.5183 38.1619 11.5283C38.1861 11.5581 38.2541 11.6775 38.2541 11.968H40.2541C40.2541 11.4185 40.1331 10.7819 39.7129 10.2657C39.2633 9.71348 38.6012 9.456 37.8541 9.456V11.456ZM38.2541 11.968V16H40.2541V11.968H38.2541ZM39.2541 17H40.8781V15H39.2541V17ZM41.8781 16V11.688H39.8781V16H41.8781ZM41.8781 11.688C41.8781 10.7697 41.6297 9.8436 41.0256 9.12943C40.4013 8.39142 39.4857 7.986 38.3861 7.986V9.986C38.9665 9.986 39.2969 10.1826 39.4986 10.4211C39.7205 10.6834 39.8781 11.1083 39.8781 11.688H41.8781ZM38.3861 7.986C37.475 7.986 36.358 8.30453 35.6468 9.23118L37.2334 10.4488C37.4463 10.1715 37.8692 9.986 38.3861 9.986V7.986ZM37.4401 9.84V5.864H35.4401V9.84H37.4401ZM36.4401 4.864H34.8161V6.864H36.4401V4.864ZM33.8161 5.864V16H35.8161V5.864H33.8161ZM34.8161 17H36.4401V15H34.8161V17ZM37.4401 16V11.996H35.4401V16H37.4401ZM46.8452 15.132H47.8452V11.6291L45.9959 14.6041L46.8452 15.132ZM46.9152 16L45.9665 16.3162L46.1944 17H46.9152V16ZM48.4272 16V17H49.647L49.4078 15.8039L48.4272 16ZM42.5752 11.198L41.5809 11.0915L41.486 11.9767L42.3544 12.1733L42.5752 11.198ZM44.0592 11.534L43.8384 12.5093L44.9394 12.7586L45.054 11.6355L44.0592 11.534ZM46.2432 11.828L46.1017 10.838L46.0929 10.8394L46.2432 11.828ZM44.4932 12.094L44.6363 13.0837L44.6434 13.0826L44.4932 12.094ZM44.9692 13.13L44.8212 12.141L44.813 12.1422L44.8048 12.1436L44.9692 13.13ZM46.7472 12.864H47.7472V11.7033L46.5992 11.875L46.7472 12.864ZM41.4352 14.152C41.4352 15.8283 42.8121 17.21 44.7452 17.21V15.21C43.8223 15.21 43.4352 14.6317 43.4352 14.152H41.4352ZM44.7452 17.21C46.2361 17.21 47.2117 16.4365 47.6945 15.6599L45.9959 14.6041C45.8346 14.8635 45.4662 15.21 44.7452 15.21V17.21ZM45.8452 15.132C45.8452 15.4388 45.8609 15.6818 45.8809 15.8641C45.8974 16.0149 45.9233 16.1867 45.9665 16.3162L47.8639 15.6838C47.8723 15.7092 47.8774 15.7282 47.8793 15.7354C47.8817 15.7445 47.8831 15.7507 47.8837 15.7532C47.8848 15.7582 47.8844 15.7571 47.883 15.7487C47.8801 15.7324 47.8747 15.6985 47.869 15.6459C47.8575 15.5412 47.8452 15.3712 47.8452 15.132H45.8452ZM46.9152 17H48.4272V15H46.9152V17ZM49.4078 15.8039C49.4082 15.8062 49.404 15.7846 49.3973 15.7398C49.3909 15.6966 49.3827 15.6348 49.3747 15.5565C49.3586 15.3996 49.3432 15.1784 49.3432 14.908H47.3432C47.3432 15.5948 47.4207 16.0666 47.4466 16.1961L49.4078 15.8039ZM49.3432 14.908V11.52H47.3432V14.908H49.3432ZM49.3432 11.52C49.3432 10.6511 49.0857 9.73449 48.3928 9.03365C47.6942 8.32717 46.6841 7.972 45.4452 7.972V9.972C46.3063 9.972 46.7451 10.2118 46.9706 10.4399C47.2016 10.6735 47.3432 11.0309 47.3432 11.52H49.3432ZM45.4452 7.972C43.323 7.972 41.7683 9.34166 41.5809 11.0915L43.5695 11.3045C43.634 10.7023 44.2074 9.972 45.4452 9.972V7.972ZM42.3544 12.1733L43.8384 12.5093L44.28 10.5587L42.796 10.2227L42.3544 12.1733ZM45.054 11.6355C45.0687 11.4919 45.1186 11.4192 45.1531 11.3866C45.1796 11.3615 45.2557 11.302 45.4592 11.302V9.302C44.8086 9.302 44.2198 9.51554 43.7773 9.93494C43.3427 10.3468 43.1197 10.8901 43.0643 11.4325L45.054 11.6355ZM45.4592 11.302C45.743 11.302 45.7996 11.3743 45.7737 11.3511C45.7622 11.3409 45.7517 11.3256 45.7464 11.3127C45.7421 11.3022 45.7472 11.308 45.7472 11.338H47.7472C47.7472 10.8158 47.5621 10.2662 47.1047 9.85837C46.6588 9.46074 46.0713 9.302 45.4592 9.302V11.302ZM45.7472 11.338C45.7472 11.3033 45.7573 11.1399 45.8981 10.9831C46.0318 10.8343 46.16 10.8297 46.1018 10.8381L46.3846 12.8179C46.7184 12.7703 47.0985 12.6397 47.3862 12.3194C47.681 11.9911 47.7472 11.6107 47.7472 11.338H45.7472ZM46.0929 10.8394L44.3429 11.1054L44.6434 13.0826L46.3934 12.8166L46.0929 10.8394ZM44.3501 11.1043C43.6295 11.2085 42.907 11.4798 42.3497 11.9948C41.77 12.5306 41.4352 13.2718 41.4352 14.152H43.4352C43.4352 13.8142 43.5483 13.6104 43.7071 13.4637C43.8884 13.2962 44.1949 13.1475 44.6363 13.0837L44.3501 11.1043ZM45.0532 13.936C45.0014 13.936 44.9796 13.9277 44.9795 13.9276C44.9791 13.9275 44.9826 13.9288 44.9887 13.9327C44.9948 13.9365 45.0024 13.9422 45.0105 13.95C45.0272 13.9662 45.0405 13.9862 45.0489 14.0067C45.0571 14.0265 45.0592 14.0431 45.0592 14.054H43.0592C43.0592 14.5399 43.2454 15.0247 43.6189 15.3865C43.9972 15.7529 44.5065 15.936 45.0532 15.936V13.936ZM45.0592 14.054C45.0592 14.037 45.0617 14.0512 45.0485 14.0818C45.035 14.113 45.0155 14.1373 45.0002 14.1513C44.9871 14.1633 44.9859 14.1598 45.0092 14.1498C45.0327 14.1397 45.0734 14.1264 45.1336 14.1164L44.8048 12.1436C44.432 12.2057 44.0018 12.354 43.6502 12.6757C43.2711 13.0225 43.0592 13.5037 43.0592 14.054H45.0592ZM45.1171 14.119L46.8951 13.853L46.5992 11.875L44.8212 12.141L45.1171 14.119ZM45.7472 12.864V13.172H47.7472V12.864H45.7472ZM45.7472 13.172C45.7472 13.6361 45.6173 13.7697 45.5778 13.8046C45.5159 13.8596 45.367 13.936 45.0532 13.936V15.936C45.6494 15.936 46.3475 15.7954 46.905 15.3009C47.4851 14.7863 47.7472 14.0379 47.7472 13.172H45.7472ZM52.337 7.096H53.337V6.096H52.337V7.096ZM50.867 7.096V6.096H49.867V7.096H50.867ZM49.467 9.182V8.182H48.467V9.182H49.467ZM49.467 10.624H48.467V11.624H49.467V10.624ZM50.727 10.624H51.727V9.624H50.727V10.624ZM53.765 15.93L54.1589 16.8491L54.765 16.5894V15.93H53.765ZM53.765 14.586H54.765V13.3662L53.5689 13.6054L53.765 14.586ZM52.337 10.624V9.624H51.337V10.624H52.337ZM53.751 10.624V11.624H54.751V10.624H53.751ZM53.751 9.182H54.751V8.182H53.751V9.182ZM52.337 9.182H51.337V10.182H52.337V9.182ZM52.337 6.096H50.867V8.096H52.337V6.096ZM49.867 7.096V8.118H51.867V7.096H49.867ZM49.867 8.118C49.867 8.18108 49.8584 8.21647 49.8542 8.22932C49.8506 8.24032 49.8529 8.22776 49.8714 8.20716C49.8802 8.19739 49.8901 8.18868 49.9001 8.18175C49.9101 8.17485 49.9171 8.17182 49.9187 8.17119C49.922 8.16988 49.8937 8.182 49.817 8.182V10.182C50.4025 10.182 50.9596 9.98821 51.3586 9.54434C51.7415 9.11845 51.867 8.58642 51.867 8.118H49.867ZM49.817 8.182H49.467V10.182H49.817V8.182ZM48.467 9.182V10.624H50.467V9.182H48.467ZM49.467 11.624H50.727V9.624H49.467V11.624ZM49.727 10.624V14.054H51.727V10.624H49.727ZM49.727 14.054C49.727 14.8987 49.9915 15.6846 50.5747 16.2591C51.1557 16.8315 51.9412 17.084 52.771 17.084V15.084C52.3408 15.084 52.1043 14.9585 51.9783 14.8344C51.8545 14.7124 51.727 14.4833 51.727 14.054H49.727ZM52.771 17.084C53.4932 17.084 53.9353 16.945 54.1589 16.8491L53.3711 15.0109C53.3987 14.999 53.2248 15.084 52.771 15.084V17.084ZM54.765 15.93V14.586H52.765V15.93H54.765ZM53.5689 13.6054C53.5709 13.605 53.5568 13.6077 53.527 13.6123C53.4994 13.6166 53.4642 13.6216 53.4249 13.6262C53.3415 13.6361 53.2621 13.642 53.205 13.642V15.642C53.5183 15.642 53.8545 15.5879 53.9611 15.5666L53.5689 13.6054ZM53.205 13.642C53.1193 13.642 53.093 13.6324 53.104 13.6358C53.1215 13.641 53.1807 13.6636 53.2435 13.7249C53.307 13.7868 53.3334 13.8485 53.3412 13.8731C53.3466 13.8903 53.337 13.8698 53.337 13.788H51.337C51.337 14.2114 51.4277 14.7477 51.847 15.1566C52.2609 15.5603 52.7933 15.642 53.205 15.642V13.642ZM53.337 13.788V10.624H51.337V13.788H53.337ZM52.337 11.624H53.751V9.624H52.337V11.624ZM54.751 10.624V9.182H52.751V10.624H54.751ZM53.751 8.182H52.337V10.182H53.751V8.182ZM53.337 9.182V7.096H51.337V9.182H53.337ZM56.8102 16V17H57.8102V16H56.8102ZM56.8102 15.09L57.6693 14.5782L55.8102 11.4576V15.09H56.8102ZM56.8242 10.022H55.8242V13.7451L57.6896 10.523L56.8242 10.022ZM56.8242 5.864H57.8242V4.864H56.8242V5.864ZM55.2282 5.864V4.864H54.2282V5.864H55.2282ZM55.2282 16H54.2282V17H55.2282V16ZM57.8102 16V15.09H55.8102V16H57.8102ZM55.9511 15.6018C56.5476 16.6031 57.6418 17.168 58.9102 17.168V15.168C58.2467 15.168 57.8568 14.8929 57.6693 14.5782L55.9511 15.6018ZM58.9102 17.168C60.1858 17.168 61.2686 16.6596 62.0183 15.7842C62.7546 14.9243 63.1162 13.7763 63.1162 12.556H61.1162C61.1162 13.3937 60.8688 14.0517 60.4992 14.4833C60.1429 14.8994 59.6226 15.168 58.9102 15.168V17.168ZM63.1162 12.556C63.1162 11.3807 62.7919 10.2467 62.0761 9.38727C61.3418 8.50561 60.2653 8 58.9662 8V10C59.7112 10 60.2096 10.2714 60.5393 10.6672C60.8875 11.0853 61.1162 11.7293 61.1162 12.556H63.1162ZM58.9662 8C57.6331 8 56.4797 8.62129 55.9588 9.52096L57.6896 10.523C57.7848 10.3587 58.1994 10 58.9662 10V8ZM57.8242 10.022V5.864H55.8242V10.022H57.8242ZM56.8242 4.864H55.2282V6.864H56.8242V4.864ZM54.2282 5.864V16H56.2282V5.864H54.2282ZM55.2282 17H56.8102V15H55.2282V17ZM59.4782 12.57C59.4782 13.0544 59.3411 13.3414 59.2085 13.4925C59.0849 13.6334 58.907 13.726 58.6442 13.726V15.726C59.4454 15.726 60.1846 15.4126 60.7119 14.8115C61.2304 14.2206 61.4782 13.4296 61.4782 12.57H59.4782ZM58.6442 13.726C58.4008 13.726 58.2187 13.6371 58.0869 13.4885C57.9492 13.3332 57.8102 13.0452 57.8102 12.57H55.8102C55.8102 13.4388 56.0702 14.2288 56.5905 14.8155C57.1168 15.4089 57.8516 15.726 58.6442 15.726V13.726ZM57.8102 12.57C57.8102 12.0862 57.9499 11.8112 58.079 11.6691C58.203 11.5325 58.3843 11.442 58.6442 11.442V9.442C57.8681 9.442 57.1324 9.7365 56.5985 10.3244C56.0696 10.9068 55.8102 11.6958 55.8102 12.57H57.8102ZM58.6442 11.442C58.9333 11.442 59.1078 11.5378 59.2199 11.6631C59.3413 11.799 59.4782 12.0722 59.4782 12.57H61.4782C61.4782 11.7098 61.2372 10.919 60.7111 10.3304C60.1756 9.73122 59.4331 9.442 58.6442 9.442V11.442ZM66.6734 13.754C66.4326 13.754 66.222 13.6647 66.0695 13.5061C65.9211 13.3519 65.7694 13.0698 65.7694 12.584H63.7694C63.7694 13.5122 64.0727 14.3151 64.6279 14.8924C65.1789 15.4653 65.9203 15.754 66.6734 15.754V13.754ZM65.7694 12.584C65.7694 12.099 65.9204 11.8281 66.0627 11.6829C66.2106 11.5321 66.4216 11.442 66.6734 11.442V9.442C65.9313 9.442 65.1903 9.71593 64.6347 10.2826C64.0735 10.8549 63.7694 11.655 63.7694 12.584H65.7694ZM66.6734 11.442C66.9348 11.442 67.1438 11.5337 67.2877 11.6811C67.4272 11.8241 67.5774 12.0946 67.5774 12.584H69.5774C69.5774 11.6594 69.2797 10.8589 68.7192 10.2844C68.163 9.71434 67.42 9.442 66.6734 9.442V11.442ZM67.5774 12.584C67.5774 13.0835 67.4252 13.3631 67.2826 13.5114C67.1369 13.6629 66.929 13.754 66.6734 13.754V15.754C67.4258 15.754 68.17 15.4741 68.7243 14.8976C69.2817 14.3179 69.5774 13.5125 69.5774 12.584H67.5774ZM66.6734 7.972C64.0705 7.972 62.1454 9.96661 62.1454 12.584H64.1454C64.1454 11.0294 65.2164 9.972 66.6734 9.972V7.972ZM62.1454 12.584C62.1454 15.2128 64.068 17.21 66.6734 17.21V15.21C65.2189 15.21 64.1454 14.1552 64.1454 12.584H62.1454ZM66.6734 17.21C69.2903 17.21 71.2154 15.2155 71.2154 12.584H69.2154C69.2154 14.1525 68.1446 15.21 66.6734 15.21V17.21ZM71.2154 12.584C71.2154 9.96396 69.2878 7.972 66.6734 7.972V9.972C68.1471 9.972 69.2154 11.032 69.2154 12.584H71.2154ZM70.6838 16L69.8721 15.416L68.7323 17H70.6838V16ZM72.5458 16V17H73.112L73.4033 16.5145L72.5458 16ZM74.0858 13.718L74.9076 13.1483L74.0696 11.9395L73.2537 13.1633L74.0858 13.718ZM75.6678 16L74.846 16.5697L75.1442 17H75.6678V16ZM77.5718 16V17H79.5141L78.3857 15.4191L77.5718 16ZM75.0938 12.528L74.2805 11.9461L73.8647 12.5273L74.2798 13.1089L75.0938 12.528ZM77.4878 9.182L78.3011 9.76388L79.4329 8.182H77.4878V9.182ZM75.6398 9.182V8.182H75.1103L74.8127 8.61998L75.6398 9.182ZM74.1558 11.366L73.3146 11.9068L74.1327 13.1793L74.9829 11.928L74.1558 11.366ZM72.6578 9.182L73.5153 8.6675L73.224 8.182H72.6578V9.182ZM70.7258 9.182V8.182H68.7704L69.915 9.76737L70.7258 9.182ZM73.1618 12.556L73.9735 13.14L74.3945 12.555L73.9726 11.9706L73.1618 12.556ZM70.6838 17H72.5458V15H70.6838V17ZM73.4033 16.5145C73.4022 16.5162 73.4071 16.5081 73.4224 16.4845C73.4361 16.4632 73.4543 16.4355 73.4768 16.4013C73.5219 16.3332 73.5808 16.2449 73.6499 16.1421C73.7878 15.9368 73.9622 15.6795 74.1378 15.4208C74.485 14.9096 74.8448 14.3823 74.9178 14.2727L73.2537 13.1633C73.1451 13.3263 71.8296 15.25 71.6883 15.4855L73.4033 16.5145ZM73.264 14.2877L74.846 16.5697L76.4896 15.4303L74.9076 13.1483L73.264 14.2877ZM75.6678 17H77.5718V15H75.6678V17ZM78.3857 15.4191L75.9077 11.9471L74.2798 13.1089L76.7578 16.5809L78.3857 15.4191ZM75.9071 13.1099L78.3011 9.76388L76.6745 8.60012L74.2805 11.9461L75.9071 13.1099ZM77.4878 8.182H75.6398V10.182H77.4878V8.182ZM74.8127 8.61998L73.3287 10.804L74.9829 11.928L76.4669 9.74402L74.8127 8.61998ZM74.997 10.8252C74.9216 10.708 74.5604 10.1886 74.2289 9.70989C74.0574 9.46228 73.8872 9.21611 73.7523 9.01917C73.6848 8.92056 73.6273 8.83609 73.5835 8.77082C73.5615 8.73813 73.5441 8.71187 73.5311 8.69198C73.5164 8.66945 73.5128 8.66342 73.5153 8.6675L71.8003 9.6965C71.8854 9.83838 72.259 10.3783 72.5847 10.8486C72.757 11.0973 72.9275 11.3431 73.0636 11.5401C73.1316 11.6385 73.19 11.7233 73.2351 11.7891C73.2576 11.8221 73.2762 11.8493 73.2905 11.8706C73.2977 11.8812 73.3034 11.8898 73.3078 11.8964C73.3099 11.8996 73.3116 11.9022 73.3128 11.9041C73.3141 11.906 73.3147 11.9068 73.3146 11.9068L74.997 10.8252ZM72.6578 8.182H70.7258V10.182H72.6578V8.182ZM69.915 9.76737L72.351 13.1414L73.9726 11.9706L71.5366 8.59663L69.915 9.76737ZM72.3501 11.972L69.8721 15.416L71.4955 16.584L73.9735 13.14L72.3501 11.972Z" fill="white"/>
<mask id="path-3-outside-1_1_4431" maskUnits="userSpaceOnUse" x="0" y="0" width="19" height="22" fill="white">
<rect fill="white" width="19" height="22"/>
<path d="M7.7923 20.2008C5.66496 20.2008 3.99348 19.5638 2.77785 18.2898C1.59262 16.9855 1 15.1807 1 12.8754C1 10.6004 1.48625 8.56808 2.45875 6.77844C3.43125 4.98879 4.76844 3.5783 6.47031 2.54698C8.17218 1.51566 10.102 1 12.2597 1C13.7185 1 14.8733 1.24266 15.7242 1.72799C16.5752 2.21332 17.0007 2.88065 17.0007 3.72997C17.0007 4.48829 16.636 5.23145 15.9066 5.95945C15.6331 6.23244 15.2684 6.49027 14.8125 6.73294C14.3871 6.94527 14.0528 7.05143 13.8096 7.05143C13.5361 7.05143 13.3082 6.94527 13.1259 6.73294C12.8219 6.39927 12.4269 6.08078 11.9406 5.77745C11.4544 5.47412 10.7706 5.32245 9.88925 5.32245C8.40011 5.32245 7.18449 5.83811 6.24238 6.86944C5.30027 7.87042 4.82922 9.18991 4.82922 10.8279C4.82922 12.3142 5.25469 13.5124 6.10562 14.4224C6.95656 15.3323 8.08101 15.7873 9.47898 15.7873C10.2084 15.7873 10.9985 15.666 11.8494 15.4233C12.7308 15.1503 13.5057 14.7712 14.1743 14.2859C14.5086 13.9825 14.8581 13.8309 15.2228 13.8309C15.8306 13.8309 16.1345 14.21 16.1345 14.9683C16.1345 15.9693 15.6331 16.9248 14.6302 17.8348C13.8704 18.5325 12.8523 19.1088 11.5759 19.5638C10.3299 19.9885 9.06871 20.2008 7.7923 20.2008Z"/>
</mask>
<path d="M7.7923 20.2008C5.66496 20.2008 3.99348 19.5638 2.77785 18.2898C1.59262 16.9855 1 15.1807 1 12.8754C1 10.6004 1.48625 8.56808 2.45875 6.77844C3.43125 4.98879 4.76844 3.5783 6.47031 2.54698C8.17218 1.51566 10.102 1 12.2597 1C13.7185 1 14.8733 1.24266 15.7242 1.72799C16.5752 2.21332 17.0007 2.88065 17.0007 3.72997C17.0007 4.48829 16.636 5.23145 15.9066 5.95945C15.6331 6.23244 15.2684 6.49027 14.8125 6.73294C14.3871 6.94527 14.0528 7.05143 13.8096 7.05143C13.5361 7.05143 13.3082 6.94527 13.1259 6.73294C12.8219 6.39927 12.4269 6.08078 11.9406 5.77745C11.4544 5.47412 10.7706 5.32245 9.88925 5.32245C8.40011 5.32245 7.18449 5.83811 6.24238 6.86944C5.30027 7.87042 4.82922 9.18991 4.82922 10.8279C4.82922 12.3142 5.25469 13.5124 6.10562 14.4224C6.95656 15.3323 8.08101 15.7873 9.47898 15.7873C10.2084 15.7873 10.9985 15.666 11.8494 15.4233C12.7308 15.1503 13.5057 14.7712 14.1743 14.2859C14.5086 13.9825 14.8581 13.8309 15.2228 13.8309C15.8306 13.8309 16.1345 14.21 16.1345 14.9683C16.1345 15.9693 15.6331 16.9248 14.6302 17.8348C13.8704 18.5325 12.8523 19.1088 11.5759 19.5638C10.3299 19.9885 9.06871 20.2008 7.7923 20.2008Z" fill="white"/>
<path d="M2.77785 18.2898L2.03777 18.9623L2.04596 18.9713L2.05437 18.9801L2.77785 18.2898ZM2.45875 6.77844L3.3374 7.2559L3.3374 7.2559L2.45875 6.77844ZM6.47031 2.54698L5.95205 1.69176L5.95205 1.69176L6.47031 2.54698ZM15.7242 1.72799L16.2197 0.859345L16.2197 0.859345L15.7242 1.72799ZM15.9066 5.95945L15.2002 5.25167L15.2002 5.25167L15.9066 5.95945ZM14.8125 6.73294L15.2591 7.6277L15.2708 7.62183L15.2824 7.61566L14.8125 6.73294ZM13.1259 6.73294L13.8845 6.08143L13.875 6.07036L13.8652 6.05956L13.1259 6.73294ZM11.9406 5.77745L12.4699 4.929L12.4699 4.929L11.9406 5.77745ZM6.24238 6.86944L6.97058 7.5548L6.97568 7.54938L6.9807 7.54389L6.24238 6.86944ZM6.10562 14.4224L6.83603 13.7393L6.83603 13.7393L6.10562 14.4224ZM11.8494 15.4233L12.1237 16.385L12.1345 16.3819L12.1453 16.3786L11.8494 15.4233ZM14.1743 14.2859L14.7618 15.0951L14.8059 15.0631L14.8463 15.0264L14.1743 14.2859ZM14.6302 17.8348L13.9582 17.0942L13.9538 17.0982L14.6302 17.8348ZM11.5759 19.5638L11.8986 20.5104L11.9117 20.5057L11.5759 19.5638ZM7.7923 19.2008C5.8771 19.2008 4.4898 18.6354 3.50133 17.5995L2.05437 18.9801C3.49715 20.4922 5.45282 21.2008 7.7923 21.2008V19.2008ZM3.51794 17.6173C2.54617 16.5479 2 15.0105 2 12.8754H0C0 15.3508 0.639063 17.4231 2.03777 18.9623L3.51794 17.6173ZM2 12.8754C2 10.7473 2.4535 8.8825 3.3374 7.2559L1.5801 6.30097C0.518999 8.25366 0 10.4535 0 12.8754H2ZM3.3374 7.2559C4.22743 5.61802 5.44185 4.3395 6.98857 3.40221L5.95205 1.69176C4.09502 2.8171 2.63507 4.35955 1.5801 6.30097L3.3374 7.2559ZM6.98857 3.40221C8.52106 2.47353 10.2688 2 12.2597 2V0C9.93521 0 7.82331 0.55779 5.95205 1.69176L6.98857 3.40221ZM12.2597 2C13.6235 2 14.585 2.22946 15.2288 2.59664L16.2197 0.859345C15.1616 0.255872 13.8134 0 12.2597 0V2ZM15.2288 2.59664C15.8251 2.93674 16.0007 3.30128 16.0007 3.72997H18.0007C18.0007 2.46002 17.3252 1.4899 16.2197 0.859345L15.2288 2.59664ZM16.0007 3.72997C16.0007 4.13874 15.8108 4.64216 15.2002 5.25167L16.613 6.66722C17.4611 5.82075 18.0007 4.83785 18.0007 3.72997H16.0007ZM15.2002 5.25167C15.0154 5.43609 14.7388 5.63935 14.3426 5.85021L15.2824 7.61566C15.798 7.3412 16.2508 7.0288 16.613 6.66722L15.2002 5.25167ZM14.366 5.83817C14.1845 5.92874 14.0439 5.98572 13.94 6.01872C13.8314 6.05322 13.7941 6.05143 13.8096 6.05143V8.05143C14.295 8.05143 14.8031 7.85526 15.2591 7.6277L14.366 5.83817ZM13.8096 6.05143C13.8062 6.05143 13.8104 6.05113 13.8202 6.05321C13.8303 6.05535 13.8427 6.05923 13.8558 6.06532C13.8688 6.07139 13.8785 6.0778 13.8844 6.08236C13.89 6.08674 13.8897 6.08752 13.8845 6.08143L12.3672 7.38444C12.7344 7.81207 13.2368 8.05143 13.8096 8.05143V6.05143ZM13.8652 6.05956C13.4856 5.64285 13.014 5.26841 12.4699 4.929L11.4113 6.6259C11.8397 6.89314 12.1583 7.1557 12.3865 7.40631L13.8652 6.05956ZM12.4699 4.929C11.7611 4.48687 10.8648 4.32245 9.88925 4.32245V6.32245C10.6763 6.32245 11.1476 6.46136 11.4113 6.6259L12.4699 4.929ZM9.88925 4.32245C8.14008 4.32245 6.64926 4.94134 5.50406 6.19498L6.9807 7.54389C7.71971 6.73489 8.66015 6.32245 9.88925 6.32245V4.32245ZM5.51418 6.18407C4.36491 7.40517 3.82922 8.98705 3.82922 10.8279H5.82922C5.82922 9.39277 6.23563 8.33568 6.97058 7.5548L5.51418 6.18407ZM3.82922 10.8279C3.82922 12.5159 4.31856 13.9754 5.37521 15.1054L6.83603 13.7393C6.19081 13.0493 5.82922 12.1125 5.82922 10.8279H3.82922ZM5.37521 15.1054C6.43931 16.2433 7.84148 16.7873 9.47898 16.7873V14.7873C8.32054 14.7873 7.47381 14.4214 6.83603 13.7393L5.37521 15.1054ZM9.47898 16.7873C10.3184 16.7873 11.2018 16.6479 12.1237 16.385L11.5752 14.4617C10.7952 14.6841 10.0984 14.7873 9.47898 14.7873V16.7873ZM12.1453 16.3786C13.1191 16.0769 13.9949 15.6518 14.7618 15.0951L13.5869 13.4766C13.0165 13.8906 12.3425 14.2238 11.5536 14.4681L12.1453 16.3786ZM14.8463 15.0264C15.0423 14.8486 15.162 14.8309 15.2228 14.8309V12.8309C14.5542 12.8309 13.975 13.1165 13.5024 13.5453L14.8463 15.0264ZM15.2228 14.8309C15.2725 14.8309 15.27 14.8387 15.2377 14.8253C15.2212 14.8184 15.2007 14.8075 15.1791 14.7914C15.1575 14.7752 15.1398 14.7574 15.1263 14.7406C15.0992 14.7069 15.1018 14.6929 15.1114 14.7288C15.1215 14.7667 15.1345 14.8423 15.1345 14.9683H17.1345C17.1345 14.482 17.0414 13.9321 16.6869 13.4898C16.2985 13.0052 15.7468 12.8309 15.2228 12.8309V14.8309ZM15.1345 14.9683C15.1345 15.5978 14.8292 16.304 13.9582 17.0942L15.3022 18.5754C16.437 17.5457 17.1345 16.3408 17.1345 14.9683H15.1345ZM13.9538 17.0982C13.3184 17.6817 12.4281 18.1984 11.2402 18.6219L11.9117 20.5057C13.2766 20.0192 14.4225 19.3832 15.3065 18.5714L13.9538 17.0982ZM11.2533 18.6173C10.1079 19.0076 8.95554 19.2008 7.7923 19.2008V21.2008C9.18187 21.2008 10.5519 20.9693 11.8985 20.5103L11.2533 18.6173Z" fill="white" mask="url(#path-3-outside-1_1_4431)"/>
<mask id="path-5-outside-2_1_4431" maskUnits="userSpaceOnUse" x="0.228516" y="0" width="10" height="21" fill="white">
<rect fill="white" x="0.228516" width="18" height="21"/>
<path d="M7.82675 19.7436C5.76019 19.7436 4.13646 19.1218 2.95557 17.8781C1.8042 16.6049 1.22852 14.843 1.22852 12.5926C1.22852 10.3718 1.70087 8.38789 2.64559 6.64085C3.5903 4.89382 4.88928 3.51692 6.54253 2.51015C8.19578 1.50338 10.0704 1 12.1665 1C13.5836 1 14.7054 1.23689 15.5321 1.71066C16.3587 2.18443 16.772 2.83587 16.772 3.66497C16.772 4.40524 16.4177 5.13071 15.7092 5.84136C15.4435 6.10786 15.0892 6.35955 14.6464 6.59644C14.2331 6.80371 13.9083 6.90735 13.6722 6.90735C13.4065 6.90735 13.1851 6.80371 13.0079 6.59644C12.7127 6.27072 12.3289 5.95981 11.8565 5.6637C11.3842 5.36759 10.7199 5.21954 9.86379 5.21954C8.4172 5.21954 7.2363 5.72292 6.32111 6.72969C5.40592 7.70684 4.94833 8.99491 4.94833 10.5939C4.94833 12.0448 5.36164 13.2144 6.18826 14.1028C7.01489 14.9911 8.10721 15.4353 9.46524 15.4353C10.1738 15.4353 10.9414 15.3168 11.768 15.0799C12.6241 14.8134 13.3769 14.4433 14.0264 13.9695C14.3512 13.6734 14.6907 13.5254 15.045 13.5254C15.6354 13.5254 15.9306 13.8955 15.9306 14.6358C15.9306 15.6129 15.4435 16.5457 14.4693 17.434C13.7312 18.115 12.7422 18.6776 11.5023 19.1218C10.2919 19.5364 9.06669 19.7436 7.82675 19.7436Z"/>
</mask>
<path d="M7.82675 19.7436C5.76019 19.7436 4.13646 19.1218 2.95557 17.8781C1.8042 16.6049 1.22852 14.843 1.22852 12.5926C1.22852 10.3718 1.70087 8.38789 2.64559 6.64085C3.5903 4.89382 4.88928 3.51692 6.54253 2.51015C8.19578 1.50338 10.0704 1 12.1665 1C13.5836 1 14.7054 1.23689 15.5321 1.71066C16.3587 2.18443 16.772 2.83587 16.772 3.66497C16.772 4.40524 16.4177 5.13071 15.7092 5.84136C15.4435 6.10786 15.0892 6.35955 14.6464 6.59644C14.2331 6.80371 13.9083 6.90735 13.6722 6.90735C13.4065 6.90735 13.1851 6.80371 13.0079 6.59644C12.7127 6.27072 12.3289 5.95981 11.8565 5.6637C11.3842 5.36759 10.7199 5.21954 9.86379 5.21954C8.4172 5.21954 7.2363 5.72292 6.32111 6.72969C5.40592 7.70684 4.94833 8.99491 4.94833 10.5939C4.94833 12.0448 5.36164 13.2144 6.18826 14.1028C7.01489 14.9911 8.10721 15.4353 9.46524 15.4353C10.1738 15.4353 10.9414 15.3168 11.768 15.0799C12.6241 14.8134 13.3769 14.4433 14.0264 13.9695C14.3512 13.6734 14.6907 13.5254 15.045 13.5254C15.6354 13.5254 15.9306 13.8955 15.9306 14.6358C15.9306 15.6129 15.4435 16.5457 14.4693 17.434C13.7312 18.115 12.7422 18.6776 11.5023 19.1218C10.2919 19.5364 9.06669 19.7436 7.82675 19.7436Z" fill="white"/>
<path d="M2.95557 17.8781L2.21385 18.5489L2.22202 18.5579L2.2304 18.5667L2.95557 17.8781ZM2.64559 6.64085L1.76596 6.16519L1.76596 6.16519L2.64559 6.64085ZM6.54253 2.51015L6.02242 1.65605L6.02242 1.65605L6.54253 2.51015ZM15.5321 1.71066L15.0348 2.57826L15.0348 2.57826L15.5321 1.71066ZM15.7092 5.84136L15.001 5.13532L15.001 5.13532L15.7092 5.84136ZM14.6464 6.59644L15.0947 7.49033L15.1065 7.48442L15.1181 7.4782L14.6464 6.59644ZM13.0079 6.59644L13.7681 5.94677L13.7587 5.93568L13.7489 5.92487L13.0079 6.59644ZM11.8565 5.6637L12.3877 4.81641L12.3877 4.81641L11.8565 5.6637ZM6.32111 6.72969L7.05098 7.41327L7.05607 7.40784L7.06107 7.40234L6.32111 6.72969ZM6.18826 14.1028L5.45619 14.784L5.45619 14.784L6.18826 14.1028ZM11.768 15.0799L12.0435 16.0412L12.0544 16.0381L12.0652 16.0347L11.768 15.0799ZM14.0264 13.9695L14.6158 14.7774L14.6599 14.7452L14.7002 14.7085L14.0264 13.9695ZM14.4693 17.434L13.7955 16.695L13.7911 16.6991L14.4693 17.434ZM11.5023 19.1218L11.8263 20.0679L11.8395 20.0632L11.5023 19.1218ZM7.82675 18.7436C5.97381 18.7436 4.63482 18.1944 3.68074 17.1896L2.2304 18.5667C3.63811 20.0492 5.54657 20.7436 7.82675 20.7436V18.7436ZM3.69729 17.2074C2.75841 16.1692 2.22852 14.6741 2.22852 12.5926H0.228516C0.228516 15.012 0.849991 17.0406 2.21385 18.5489L3.69729 17.2074ZM2.22852 12.5926C2.22852 10.5179 2.66848 8.70085 3.52521 7.11652L1.76596 6.16519C0.733264 8.07493 0.228516 10.2257 0.228516 12.5926H2.22852ZM3.52521 7.11652C4.38801 5.52098 5.5647 4.27644 7.06264 3.36425L6.02242 1.65605C4.21386 2.75739 2.79259 4.26666 1.76596 6.16519L3.52521 7.11652ZM7.06264 3.36425C8.54625 2.46079 10.2382 2 12.1665 2V0C9.90274 0 7.84531 0.54598 6.02242 1.65605L7.06264 3.36425ZM12.1665 2C13.4881 2 14.4158 2.22349 15.0348 2.57826L16.0293 0.843058C14.9951 0.250288 13.6792 0 12.1665 0V2ZM15.0348 2.57826C15.6061 2.90568 15.772 3.25404 15.772 3.66497H17.772C17.772 2.4177 17.1113 1.46318 16.0293 0.843057L15.0348 2.57826ZM15.772 3.66497C15.772 4.05747 15.5909 4.54368 15.001 5.13532L16.4174 6.54741C17.2446 5.71773 17.772 4.75302 17.772 3.66497H15.772ZM15.001 5.13532C14.8239 5.31298 14.5577 5.50982 14.1747 5.71467L15.1181 7.4782C15.6208 7.20928 16.0631 6.90275 16.4174 6.54741L15.001 5.13532ZM14.1981 5.70255C14.0228 5.79049 13.8877 5.84539 13.7888 5.87696C13.6852 5.91005 13.6524 5.90735 13.6722 5.90735V7.90735C14.1518 7.90735 14.651 7.71285 15.0947 7.49033L14.1981 5.70255ZM13.6722 5.90735C13.671 5.90735 13.6774 5.90727 13.6893 5.90981C13.7015 5.9124 13.7159 5.91696 13.7308 5.92393C13.7633 5.93914 13.7749 5.95463 13.7681 5.94677L12.2477 7.24611C12.6091 7.66901 13.1053 7.90735 13.6722 7.90735V5.90735ZM13.7489 5.92487C13.3782 5.51592 12.918 5.14884 12.3877 4.81641L11.3254 6.51098C11.7398 6.77078 12.0472 7.02552 12.267 7.26801L13.7489 5.92487ZM12.3877 4.81641C11.6924 4.38055 10.8148 4.21954 9.86379 4.21954V6.21954C10.6251 6.21954 11.076 6.35463 11.3254 6.51098L12.3877 4.81641ZM9.86379 4.21954C8.15551 4.21954 6.69896 4.82738 5.58115 6.05704L7.06107 7.40234C7.77365 6.61846 8.67889 6.21954 9.86379 6.21954V4.21954ZM5.59124 6.0461C4.46974 7.24354 3.94833 8.79338 3.94833 10.5939H5.94833C5.94833 9.19644 6.34211 8.17014 7.05098 7.41327L5.59124 6.0461ZM3.94833 10.5939C3.94833 12.2452 4.42469 13.6755 5.45619 14.784L6.92034 13.4215C6.29858 12.7534 5.94833 11.8445 5.94833 10.5939H3.94833ZM5.45619 14.784C6.49556 15.9009 7.86611 16.4353 9.46524 16.4353V14.4353C8.34832 14.4353 7.53422 14.0812 6.92034 13.4215L5.45619 14.784ZM9.46524 16.4353C10.2843 16.4353 11.1456 16.2985 12.0435 16.0412L11.4925 14.1186C10.7371 14.3351 10.0632 14.4353 9.46524 14.4353V16.4353ZM12.0652 16.0347C13.0141 15.7394 13.868 15.3229 14.6158 14.7774L13.4371 13.1616C12.8859 13.5637 12.2341 13.8875 11.4708 14.1251L12.0652 16.0347ZM14.7002 14.7085C14.887 14.5381 14.9962 14.5254 15.045 14.5254V12.5254C14.3852 12.5254 13.8153 12.8087 13.3527 13.2306L14.7002 14.7085ZM15.045 14.5254C15.0898 14.5254 15.0829 14.5325 15.0468 14.5174C15.0285 14.5098 15.0064 14.4979 14.9835 14.4806C14.9606 14.4634 14.9418 14.4445 14.9274 14.4265C14.8986 14.3904 14.9001 14.3739 14.9088 14.4069C14.9181 14.4418 14.9306 14.5139 14.9306 14.6358H16.9306C16.9306 14.1593 16.84 13.617 16.491 13.1794C16.1075 12.6986 15.5619 12.5254 15.045 12.5254V14.5254ZM14.9306 14.6358C14.9306 15.2433 14.6377 15.9271 13.7955 16.695L15.143 18.1729C16.2493 17.1642 16.9306 15.9825 16.9306 14.6358H14.9306ZM13.7911 16.6991C13.1772 17.2655 12.3161 17.7681 11.165 18.1804L11.8395 20.0632C13.1683 19.5872 14.2852 18.9645 15.1474 18.1689L13.7911 16.6991ZM11.1783 18.1757C10.0688 18.5557 8.95295 18.7436 7.82675 18.7436V20.7436C9.18043 20.7436 10.5149 20.517 11.8263 20.0679L11.1783 18.1757Z" fill="white" mask="url(#path-5-outside-2_1_4431)"/>
</svg>
