<svg width="300" height="222" viewBox="0 0 300 222" fill="none" xmlns="http://www.w3.org/2000/svg">
<g clip-path="url(#clip0_1_730)">
<path d="M32.5885 156.558C31.2928 156.731 29.8782 156.992 28.3735 157.374C21.9976 158.992 21.8623 164.381 21.9197 165.616L21.8746 165.58C21.235 166.861 20.8332 168.157 20.5872 169.377L20.2961 152.858C20.4847 152.368 20.6569 151.812 20.8004 151.246C21.276 153.078 22.0591 154.802 22.7357 154.69C23.6131 154.542 23.9944 151.327 23.8304 149.046C24.9457 150.832 26.8236 152.746 27.5329 152.154C28.0988 151.684 27.7625 149.745 27.1475 147.98C28.435 148.944 29.8618 149.577 30.3047 148.964C30.9074 148.128 29.46 145.275 28.1275 143.683C29.911 143.892 32.1826 143.535 32.3343 142.524C32.4573 141.693 31.1042 140.641 29.6568 139.963C31.1083 139.488 32.4696 138.656 32.4245 137.835C32.3712 136.86 30.3539 136.202 28.6113 136.105C29.9233 134.829 31.1288 133.058 30.7598 132.262C30.4195 131.527 28.845 131.813 27.3894 132.461C28.2505 130.93 28.8573 129.2 28.394 128.608C27.8199 127.873 25.7821 129.144 24.3881 130.547C24.6587 128.358 24.5234 125.597 23.732 125.347C23.0719 125.138 22.137 126.746 21.4974 128.496C21.2145 126.659 20.6405 124.914 19.9803 124.914C19.0373 124.914 18.2747 128.45 18.2747 130.757C18.2747 130.889 18.2747 131.012 18.2829 131.129C18.1885 130.991 18.0778 130.848 17.9548 130.7C16.6264 129.093 14.0555 127.312 13.3954 128.154C12.9362 128.746 13.5389 130.471 14.4 132.007C12.9444 131.359 11.3658 131.073 11.0296 131.808C10.5745 132.793 12.5221 135.258 14.1047 136.452C14.0104 136.436 13.9079 136.426 13.8013 136.416C11.9521 136.258 9.06558 136.967 8.99997 138.136C8.95487 138.957 10.312 139.789 11.7676 140.264C10.3202 140.942 8.97127 141.994 9.09018 142.825C9.23779 143.836 11.5093 144.193 13.297 143.984C11.9644 145.576 10.5171 148.429 11.1198 149.266C11.5626 149.878 12.9895 149.245 14.2769 148.281C13.6578 150.046 13.3257 151.986 13.8915 152.455C14.6378 153.078 16.692 150.909 17.7703 149.046C17.6596 151.327 18.0983 154.461 18.9676 154.583C19.3325 154.634 19.7179 154.149 20.0664 153.409L19.0824 171.163C18.8528 173.23 20.3248 174.582 20.456 175.429L20.6692 187.452C20.4273 186.595 20.1074 185.717 19.6687 184.85L19.6236 184.885C19.681 183.65 19.5457 178.261 13.1699 176.644C11.6651 176.261 10.2505 176.001 8.95487 175.827C7.42549 175.623 6.82686 178.231 8.20863 179.073C10.2095 180.292 12.0915 181.828 13.0756 183.645C15.5849 188.294 19.0496 185.61 19.5457 185.191C20.0951 186.334 20.456 187.483 20.6856 188.575L20.8004 194.959C20.7717 195.112 20.7553 195.193 20.7512 195.199L20.8045 195.219L21.0792 210.671L23.6131 210.646L22.707 194.852C22.8587 193.999 23.3261 191.096 22.707 188.085L21.8008 175.674L20.62 170.796C20.7922 169.285 21.1899 167.591 22.0017 165.912C22.4938 166.33 25.9625 169.02 28.4719 164.366C29.4518 162.549 31.3379 161.013 33.3388 159.793C34.7206 158.951 34.1261 156.344 32.5926 156.548L32.5885 156.558ZM21.0136 193.117L20.9644 190.412C21.0587 191.433 21.0546 192.356 21.0136 193.117Z" fill="#F2F2F2"/>
<path d="M0 211.416C0 211.753 0.217311 212.023 0.487925 212.023H299.512C299.783 212.023 300 211.753 300 211.416C300 211.079 299.783 210.809 299.512 210.809H0.487925C0.217311 210.809 0 211.079 0 211.416Z" fill="#3F3D56"/>
<path d="M181.467 211.952C193.695 211.952 203.608 199.615 203.608 184.395C203.608 169.176 193.695 156.839 181.467 156.839C169.239 156.839 159.326 169.176 159.326 184.395C159.326 199.615 169.239 211.952 181.467 211.952Z" fill="#3F3D56"/>
<path d="M181.467 202.766C189.619 202.766 196.228 194.541 196.228 184.395C196.228 174.249 189.619 166.024 181.467 166.024C173.315 166.024 166.706 174.249 166.706 184.395C166.706 194.541 173.315 202.766 181.467 202.766Z" fill="white"/>
<path d="M181.467 194.857C186.109 194.857 189.873 190.173 189.873 184.395C189.873 178.618 186.109 173.934 181.467 173.934C176.825 173.934 173.062 178.618 173.062 184.395C173.062 190.173 176.825 194.857 181.467 194.857Z" fill="#3F3D56"/>
<path d="M53.5406 211.952C65.7688 211.952 75.6817 199.615 75.6817 184.395C75.6817 169.176 65.7688 156.839 53.5406 156.839C41.3123 156.839 31.3994 169.176 31.3994 184.395C31.3994 199.615 41.3123 211.952 53.5406 211.952Z" fill="#3F3D56"/>
<path d="M53.5405 202.766C61.6927 202.766 68.3013 194.541 68.3013 184.395C68.3013 174.249 61.6927 166.024 53.5405 166.024C45.3884 166.024 38.7798 174.249 38.7798 184.395C38.7798 194.541 45.3884 202.766 53.5405 202.766Z" fill="white"/>
<path d="M211.755 171.291C208.873 162.243 198.794 134.599 180.844 125.449C180.704 125.378 180.561 125.332 180.413 125.307L122.842 115.044C121.895 114.876 121.009 115.682 120.858 116.861L119.849 124.618C119.779 125.148 119.87 125.694 120.103 126.149C123.027 131.793 141.765 170.112 111.759 170.112C81.7541 170.112 73.484 143.387 72.1719 138.666C72.0489 138.223 72.0448 137.743 72.1555 137.294L81.2497 101.445C81.4097 100.807 81.3235 100.153 81.0611 99.6329L85.0588 90.3912L92.3818 95.5504L96.1745 95.6066L109.119 104.027L111.755 98.6684L85.0588 82.0936C85.0588 82.0936 85.1039 78.2561 76.4935 75.1942L62.9628 67.5396L61.3227 70.0911L65.4229 74.1736L65.833 77.2354L68.7031 78.2561L74.4434 92.0344L72.8033 95.9842L74.796 97.1936L74.2261 97.0303C73.4019 96.7956 72.5614 97.3263 72.2252 98.2908L63.1801 124.092C63.0407 124.485 62.8111 124.822 62.52 125.057L59.2972 127.644C58.9979 127.884 58.7601 128.236 58.6248 128.649L54.9428 139.759C54.828 140.106 54.7952 140.468 54.8239 140.82C50.2358 141.902 36.7502 146.576 29.3411 165.014L37.9516 173.689C37.9516 173.689 51.4494 162.819 73.7546 174.138C77.6334 181.65 83.2875 187.881 91.4552 188.468C112.985 190.019 148.657 191.55 152.757 185.426C155.759 180.941 157.846 178.144 158.752 176.965C159.072 176.552 159.506 176.312 159.966 176.292L210.173 174.296C211.39 174.25 212.198 172.709 211.751 171.301L211.755 171.291Z" fill="#4EAC6D"/>
<path d="M73.2215 91.0086C76.8447 91.0086 79.7819 87.353 79.7819 82.8437C79.7819 78.3343 76.8447 74.6787 73.2215 74.6787C69.5984 74.6787 66.6612 78.3343 66.6612 82.8437C66.6612 87.353 69.5984 91.0086 73.2215 91.0086Z" fill="#3F3D56"/>
<path d="M178.281 125.485C178.203 125.485 178.125 125.485 178.048 125.48L123.195 122.837C120.768 122.719 118.689 120.795 117.897 117.938L117.147 115.218C116.536 113.003 116.803 110.625 117.877 108.701C118.955 106.777 120.653 105.644 122.535 105.588L179.208 103.965C180.963 103.914 182.652 104.848 183.796 106.532C184.94 108.216 185.407 110.421 185.075 112.59L184.005 119.571C183.476 123.036 181.086 125.48 178.277 125.48L178.281 125.485Z" fill="#3F3D56"/>
<path d="M53.5405 194.857C58.1827 194.857 61.9459 190.173 61.9459 184.395C61.9459 178.618 58.1827 173.934 53.5405 173.934C48.8983 173.934 45.1351 178.618 45.1351 184.395C45.1351 190.173 48.8983 194.857 53.5405 194.857Z" fill="#3F3D56"/>
<path d="M200.32 154.614C199.008 154.614 197.757 153.741 197.089 152.236L192.935 142.877C192.275 141.392 192.316 139.651 193.038 138.217C193.759 136.778 195.006 135.972 196.359 136.064L203.899 136.544C205.302 136.636 206.564 137.733 207.114 139.345L209.316 145.826C209.717 147.015 209.709 148.311 209.287 149.49C208.865 150.664 208.094 151.547 207.118 151.965L201.533 154.364C201.136 154.537 200.726 154.619 200.324 154.619L200.32 154.614Z" fill="#3F3D56"/>
<path d="M104.969 216.815C104.908 216.815 104.842 216.815 104.781 216.8L103.108 216.57C102.563 216.494 102.087 216.111 101.808 215.519C101.529 214.927 101.492 214.228 101.706 213.595L110.414 187.855C110.652 187.151 111.181 186.651 111.792 186.554C112.387 186.462 112.965 186.753 113.346 187.33C113.723 187.906 113.838 188.672 113.645 189.376L106.614 215.346C106.376 216.223 105.703 216.81 104.973 216.81L104.969 216.815Z" fill="#3F3D56"/>
<path d="M150.183 37.1913C150.183 37.1913 146.997 29.2611 147.632 22.127L137.029 28.9651L137.439 41.9474L150.183 37.1913Z" fill="#A0616A"/>
<path d="M143.602 32.6292C148.885 32.6292 153.168 27.2989 153.168 20.7236C153.168 14.1484 148.885 8.81812 143.602 8.81812C138.319 8.81812 134.036 14.1484 134.036 20.7236C134.036 27.2989 138.319 32.6292 143.602 32.6292Z" fill="#A0616A"/>
<path d="M153.373 207.66H147.534L144.758 179.639H153.373V207.66Z" fill="#A0616A"/>
<path d="M133.376 207.492C133.195 207.874 133.097 209.104 133.097 209.543C133.097 210.906 133.983 212.008 135.077 212.008H153.151C153.897 212.008 154.504 211.253 154.504 210.324V209.385C154.504 209.385 155.398 206.568 153.557 203.103C153.557 203.103 151.269 205.818 147.849 201.567L146.841 199.296L139.542 205.94L135.496 206.558C134.61 206.696 133.827 206.537 133.372 207.492H133.376Z" fill="#2F2E41"/>
<path d="M136.164 37.1913L150.182 34.8132L161.015 41.1564L161.651 90.3196C161.651 90.3196 135.008 94.2847 130.809 89.1305C126.61 83.9764 129.796 42.7434 129.796 42.7434L136.168 37.1913H136.164Z" fill="#E6E6E6"/>
<path d="M141.207 23.7548H138.636C138.636 23.7548 136.406 20.3358 136.705 22.4178C137.004 24.4999 135.803 26.7402 135.803 26.7402L134.003 25.9951C134.003 25.9951 130.403 7.14934 141.207 6.11341C152.011 5.07748 154.414 15.5388 154.414 15.5388C154.414 15.5388 153.815 20.7695 152.614 19.2743C151.412 17.7791 144.811 17.0341 144.811 17.0341L141.211 23.7599L141.207 23.7548Z" fill="#2F2E41"/>
<path d="M134.405 201.363L128.792 203.333L120.001 177.312L128.291 174.398L134.405 201.363Z" fill="#A0616A"/>
<path d="M115.126 207.966C115.035 208.395 115.212 209.609 115.306 210.038C115.601 211.35 116.696 212.11 117.75 211.743L135.143 205.629C135.86 205.379 136.279 204.445 136.078 203.552L135.873 202.649C135.873 202.649 136.119 199.638 133.589 196.923C133.589 196.923 131.982 200.312 127.763 197.372L126.295 195.525L120.722 204.384L116.967 206.349C116.147 206.777 115.355 206.895 115.126 207.966Z" fill="#2F2E41"/>
<path d="M159.736 85.5637L161.647 92.7591V117.484L155.911 192.111H144.709L143.446 138.84L144.442 112.528L123.076 152.761L132.466 181.497L122.129 190.075C122.129 190.075 106.671 146.234 108.984 141.984C111.296 137.738 132.01 87.5897 132.01 87.5897C132.01 87.5897 159.728 86.3598 159.728 85.5688L159.736 85.5637Z" fill="#2F2E41"/>
<path d="M165.472 57.0168L168.551 63.2937C168.551 63.2937 172.906 84.594 168.551 84.6807C164.197 84.7675 155.406 73.8264 155.406 73.8264L156.554 68.1161L159.74 69.7031L159.104 57.0168H165.476H165.472Z" fill="#A0616A"/>
<path d="M155.915 41.0594C155.915 41.0594 166.108 38.8243 167.063 47.127C168.018 55.4297 168.551 63.2987 168.551 63.2987L157.505 64.4367L155.915 41.0594Z" fill="#E6E6E6"/>
<path d="M158.129 73.1314C159.051 71.5198 157.701 68.3538 155.113 66.0599C152.525 63.766 149.68 63.2127 148.758 64.8243C147.835 66.4358 149.186 69.6018 151.773 71.8957C154.361 74.1897 157.207 74.7429 158.129 73.1314Z" fill="#A0616A"/>
<path d="M242.109 156.558C240.813 156.731 239.399 156.992 237.894 157.374C231.518 158.992 231.383 164.381 231.44 165.616L231.395 165.58C230.755 166.861 230.354 168.157 230.108 169.377L229.816 152.858C230.005 152.368 230.177 151.812 230.321 151.246C230.796 153.078 231.58 154.802 232.256 154.69C233.134 154.542 233.515 151.327 233.351 149.046C234.466 150.832 236.344 152.746 237.053 152.154C237.619 151.684 237.283 149.745 236.668 147.98C237.955 148.944 239.382 149.577 239.825 148.964C240.428 148.128 238.98 145.275 237.648 143.683C239.431 143.892 241.703 143.535 241.855 142.524C241.978 141.693 240.625 140.641 239.177 139.963C240.629 139.488 241.99 138.656 241.945 137.835C241.892 136.86 239.874 136.202 238.132 136.105C239.444 134.829 240.649 133.058 240.28 132.262C239.94 131.527 238.365 131.813 236.91 132.461C237.771 130.93 238.378 129.2 237.914 128.608C237.34 127.873 235.303 129.144 233.909 130.547C234.179 128.358 234.044 125.597 233.252 125.347C232.592 125.138 231.657 126.746 231.018 128.496C230.735 126.659 230.161 124.914 229.501 124.914C228.558 124.914 227.795 128.45 227.795 130.757C227.795 130.889 227.795 131.012 227.803 131.129C227.709 130.991 227.598 130.848 227.475 130.7C226.147 129.093 223.576 127.312 222.916 128.154C222.457 128.746 223.059 130.471 223.92 132.007C222.465 131.359 220.886 131.073 220.55 131.808C220.095 132.793 222.043 135.258 223.625 136.452C223.531 136.436 223.428 136.426 223.322 136.416C221.473 136.258 218.586 136.967 218.52 138.136C218.475 138.957 219.832 139.789 221.288 140.264C219.841 140.942 218.492 141.994 218.611 142.825C218.758 143.836 221.03 144.193 222.817 143.984C221.485 145.576 220.037 148.429 220.64 149.266C221.083 149.878 222.51 149.245 223.797 148.281C223.178 150.046 222.846 151.986 223.412 152.455C224.158 153.078 226.212 150.909 227.291 149.046C227.18 151.327 227.619 154.461 228.488 154.583C228.853 154.634 229.238 154.149 229.587 153.409L228.603 171.163C228.373 173.23 229.845 174.582 229.976 175.429L230.19 187.452C229.948 186.595 229.628 185.717 229.189 184.85L229.144 184.885C229.201 183.65 229.066 178.261 222.69 176.644C221.186 176.261 219.771 176.001 218.475 175.827C216.946 175.623 216.347 178.231 217.729 179.073C219.73 180.292 221.612 181.828 222.596 183.645C225.105 188.294 228.57 185.61 229.066 185.191C229.616 186.334 229.976 187.483 230.206 188.575L230.321 194.959C230.292 195.112 230.276 195.193 230.272 195.199L230.325 195.219L230.6 210.671L233.134 210.646L232.227 194.852C232.379 193.999 232.847 191.096 232.227 188.085L231.321 175.674L230.14 170.796C230.313 169.285 230.71 167.591 231.522 165.912C232.014 166.33 235.483 169.02 237.992 164.366C238.972 162.549 240.858 161.013 242.859 159.793C244.241 158.951 243.647 156.344 242.113 156.548L242.109 156.558ZM230.534 193.117L230.485 190.412C230.579 191.433 230.575 192.356 230.534 193.117Z" fill="#F2F2F2"/>
<path d="M212.6 208.752L217.008 207.568L215.429 185.86L208.93 187.605L212.6 208.752Z" fill="#A0616A"/>
<path d="M227.672 204.573C227.861 204.823 228.095 205.731 228.152 206.068C228.332 207.094 227.808 208.109 226.979 208.329L213.338 211.998C212.776 212.151 212.219 211.702 212.096 211.003L211.973 210.293C211.973 210.293 210.927 208.349 211.862 205.359C211.862 205.359 213.945 206.946 215.966 203.037L216.43 201.118L222.809 204.649L225.942 204.297C226.627 204.221 227.201 203.94 227.668 204.573H227.672Z" fill="#2F2E41"/>
<path d="M220.481 207.094L224.154 203.848L215.843 184.661L210.419 189.447L220.481 207.094Z" fill="#A0616A"/>
<path d="M233.015 195.867C233.265 196.005 233.769 196.724 233.925 197.005C234.413 197.862 234.253 199.051 233.564 199.659L222.182 209.712C221.711 210.125 221.063 209.987 220.727 209.406L220.39 208.814C220.39 208.814 218.816 207.538 218.73 204.328C218.73 204.328 221.145 204.767 221.772 200.184L221.592 198.194L228.574 198.317L231.346 196.459C231.953 196.051 232.392 195.515 233.019 195.867H233.015Z" fill="#2F2E41"/>
<path d="M167.535 99.7502C167.535 99.7502 160.683 111.344 174.386 124.383L202.37 113.253L192.374 87.3089L183.521 81.2668L167.531 99.7451L167.535 99.7502Z" fill="#2F2E41"/>
<path d="M202.374 113.258L213.223 139.554L220.079 194.29L211.513 195L202.944 143.111L187.81 115.034L198.376 108.992" fill="#2F2E41"/>
<path d="M174.39 116.126V124.388L193.809 150.929C193.809 150.929 193.809 170.831 201.234 180.073L209.8 196.423L217.225 191.448L206.376 143.826L186.957 112.549L174.394 116.126H174.39Z" fill="#2F2E41"/>
<path d="M188.187 34.2265L184.53 51.5822L170.585 48.1682C170.585 48.1682 180.315 35.6809 178.946 29.991L188.192 34.2265H188.187Z" fill="#A0616A"/>
<path d="M177.531 36.8442L186.096 41.8198C186.096 41.8198 190.504 45.1725 190.586 47.4076C190.668 49.6428 190.094 60.3032 190.094 60.3032C190.094 60.3032 193.522 64.5694 191.238 73.0966L192.382 87.3139L166.682 104.373L168.966 74.5204L167.822 46.8004L177.531 36.8493V36.8442Z" fill="#3F3D56"/>
<path d="M169.843 117.739C170.847 120.601 172.848 122.28 174.312 121.484C175.776 120.688 176.149 117.723 175.149 114.86C174.759 113.707 174.156 112.692 173.386 111.89L169.011 99.8215L164.504 102.496L169.294 114.11C169.24 115.355 169.429 116.601 169.843 117.739Z" fill="#A0616A"/>
<path d="M174.39 48.5763C174.39 48.5763 168.109 43.6008 165.825 49.2856C163.541 54.9705 158.399 84.1142 158.399 84.1142L165.825 111.834L172.676 108.283L166.678 78.4498L174.386 48.5763H174.39Z" fill="#3F3D56"/>
<path d="M206.589 113.263C208.369 115.468 210.726 116.111 211.854 114.697C212.981 113.284 212.448 110.36 210.669 108.155C209.968 107.262 209.102 106.593 208.151 106.201L200.513 96.9844L197.113 101.536L205.002 110.135C205.322 111.319 205.867 112.391 206.589 113.258V113.263Z" fill="#A0616A"/>
<path d="M190.344 46.8769C190.344 46.8769 179.392 46.3207 178.95 52.6536C178.511 58.9866 185.998 87.2475 185.998 87.2475L201.107 109.614L206.425 103.169L192.021 78.1844L190.348 46.8769H190.344Z" fill="#3F3D56"/>
<path d="M158.276 98.1937L149.129 63.6305C141.732 55.5216 133.708 75.0512 112.169 63.9775L118.943 103.072C135.229 92.116 149.244 87.8242 158.276 98.1937Z" fill="white"/>
<path d="M118.943 104.093C118.886 104.093 118.824 104.078 118.771 104.047C118.652 103.981 118.57 103.848 118.541 103.69L111.768 64.5949C111.735 64.4112 111.788 64.2173 111.907 64.0948C112.026 63.9723 112.186 63.9417 112.325 64.0132C124.56 70.3002 132.457 66.5596 138.226 63.8243C142.609 61.7474 146.07 60.1042 149.399 63.7529C149.453 63.8141 149.494 63.8907 149.518 63.9774L158.666 98.5407C158.723 98.7601 158.653 99.005 158.498 99.1275C158.342 99.2551 158.133 99.2296 157.997 99.0714C150.059 89.9573 137.71 91.529 119.14 104.026C119.078 104.067 119.013 104.088 118.943 104.088V104.093ZM112.731 65.3195L119.226 102.812C137.045 90.9371 149.252 89.105 157.423 97.1322L148.768 64.4367C145.836 61.3136 142.757 62.7731 138.513 64.7837C132.732 67.5241 124.855 71.2595 112.731 65.3246V65.3195Z" fill="#3F3D56"/>
<path d="M126.356 47.1628L120.567 48.6529C120.567 48.6529 105.093 59.2521 108.02 63.2682C110.944 67.2844 123.371 67.7998 123.371 67.7998L125.938 62.8549L122.83 61.0433L130.711 52.9549L126.356 47.1628Z" fill="#A0616A"/>
<path d="M142.249 44.9429C142.249 44.9429 136.594 34.1498 131.071 38.957C125.548 43.7641 120.571 48.6529 120.571 48.6529L127.451 59.4663L142.253 44.9429H142.249Z" fill="#E6E6E6"/>
<path d="M133.193 67.6875C133.509 65.7484 131.24 63.5406 128.126 62.7563C125.012 61.972 122.232 62.9082 121.917 64.8474C121.601 66.7866 123.87 68.9944 126.984 69.7787C130.098 70.563 132.878 69.6267 133.193 67.6875Z" fill="#A0616A"/>
<path d="M240.12 215.32C242.032 215.32 243.581 213.392 243.581 211.013C243.581 208.634 242.032 206.706 240.12 206.706C238.209 206.706 236.66 208.634 236.66 211.013C236.66 213.392 238.209 215.32 240.12 215.32Z" fill="#3F3D56"/>
<path d="M244.733 222C246.644 222 248.194 220.072 248.194 217.693C248.194 215.314 246.644 213.386 244.733 213.386C242.822 213.386 241.273 215.314 241.273 217.693C241.273 220.072 242.822 222 244.733 222Z" fill="#3F3D56"/>
<path d="M279.331 222C281.242 222 282.792 220.072 282.792 217.693C282.792 215.314 281.242 213.386 279.331 213.386C277.42 213.386 275.87 215.314 275.87 217.693C275.87 220.072 277.42 222 279.331 222Z" fill="#3F3D56"/>
<path d="M249.801 153.241V106.471C249.801 101.235 253.319 99.9391 257.526 99.9391C259.588 99.9391 260.589 99.6431 262.036 101.47C263.484 103.297 265.091 104.057 265.058 106.624L264.451 152.516L249.797 153.236L249.801 153.241ZM257.936 103.006C254.18 103.006 250.621 101.802 250.621 106.476V152.185L263.648 151.542L264.242 106.614C264.271 104.323 261.278 104.639 259.99 103.006C258.699 101.373 259.781 103.006 257.94 103.006H257.936Z" fill="#3F3D56"/>
<path d="M239.502 152.675L238.977 203.772C238.969 204.43 239.096 205.078 239.342 205.66L243.221 214.779C243.79 216.121 244.93 216.933 246.148 216.866L280.204 214.999C281.947 214.902 283.296 213.064 283.218 210.896L281.082 152.552C281.004 150.455 279.618 148.801 277.929 148.801H242.655C240.929 148.801 239.522 150.531 239.498 152.68L239.502 152.675Z" fill="#E6E6E6"/>
<path d="M252.926 175.735L252.106 175.684L252.409 168.122C252.573 164.049 255.267 160.783 258.543 160.686L273.045 160.268C275.973 160.207 278.4 162.967 278.56 166.611L278.868 173.526L278.048 173.582L277.74 166.667C277.601 163.58 275.53 161.212 273.062 161.288L258.559 161.707C255.71 161.789 253.369 164.631 253.225 168.173L252.922 175.735H252.926Z" fill="#3F3D56"/>
<path d="M252.347 212.365L251.531 212.263L253.299 190.8C253.627 186.83 256.288 183.701 259.49 183.523L273.636 182.732C275.419 182.63 277.113 183.416 278.408 184.941C279.704 186.467 280.426 188.529 280.446 190.749L280.606 209.436L279.786 209.446L279.626 190.759C279.61 188.82 278.978 187.018 277.847 185.681C276.715 184.344 275.227 183.661 273.677 183.747L259.531 184.538C256.73 184.696 254.406 187.427 254.119 190.897L252.351 212.36L252.347 212.365Z" fill="#3F3D56"/>
<path d="M246.008 210.88L245.188 210.865L245.705 161.814C245.742 158.461 247.878 155.757 250.572 155.655L278.453 154.634L278.478 155.655L250.596 156.675C248.341 156.757 246.553 159.018 246.525 161.824L246.008 210.875V210.88Z" fill="#3F3D56"/>
<path d="M246.082 203.894H245.512V159.222C245.512 157.808 244.59 156.655 243.45 156.655H240.264V155.634H243.45C244.954 155.634 246.193 157.078 246.32 158.905C246.328 159.007 246.332 159.114 246.332 159.222V180.374L246.082 203.894Z" fill="#3F3D56"/>
<path d="M194.141 24.949C194.141 31.4912 189.881 36.7933 184.624 36.7933C179.368 36.7933 175.108 31.4912 175.108 24.949C175.108 18.4068 179.368 13.1047 184.624 13.1047C189.881 13.1047 194.141 18.4068 194.141 24.949Z" fill="#A0616A"/>
<path d="M183.866 9.0274C184.14 9.22642 184.509 8.92533 184.6 8.5426C184.69 8.15987 184.583 7.75673 184.485 7.3791C184.313 6.74631 184.145 6.11863 183.972 5.48585C183.607 4.14373 183.222 2.75569 182.435 1.73507C181.246 0.193936 179.351 -0.199003 177.65 0.0867706C175.464 0.454194 173.308 1.92389 172.291 4.36317C171.274 6.80245 171.709 10.2011 173.546 11.7218C170.925 15.4573 170.015 19.6214 170.159 24.5714C170.302 29.5265 174.64 34.0836 177.469 37.5741C178.101 37.0995 178.675 34.8644 178.326 34.053C177.978 33.2416 178.478 32.3026 178.048 31.5525C177.617 30.8074 177.256 31.9964 177.691 31.2514C177.966 30.7819 176.895 29.7051 177.301 29.4245C179.274 28.0671 179.93 25.0052 181.168 22.6629C182.664 19.8358 185.219 17.9221 187.929 17.6057C189.422 17.4322 190.996 17.7486 192.218 18.8253C193.44 19.9021 194.231 21.826 193.948 23.658C194.682 22.7292 195.047 21.3718 194.912 20.0807C194.772 18.7896 194.137 17.5955 193.231 16.9372C193.78 14.6765 193.309 12.0739 192.033 10.3287C190.758 8.57832 185.588 8.87941 183.726 9.33869L183.87 9.0325L183.866 9.0274Z" fill="#2F2E41"/>
<path d="M183.579 17.6721C181.114 18.0038 179.335 20.6625 177.83 23.1171C176.965 24.5307 176.055 26.0922 176.079 27.8732C176.1 29.6695 177.068 31.2157 177.531 32.9151C178.285 35.7014 177.551 39.0133 175.755 40.9218C177.531 41.3403 179.45 39.6869 179.753 37.467C180.11 34.89 178.539 32.3997 178.724 29.792C178.888 27.4956 180.344 25.7299 181.578 24.0102C182.816 22.2904 183.976 20.0144 183.406 17.8201L183.579 17.6721Z" fill="#2F2E41"/>
</g>
<defs>
<clipPath id="clip0_1_730">
<rect width="300" height="222" fill="white"/>
</clipPath>
</defs>
</svg>
